<svg width="46" height="48" viewBox="0 0 46 48" fill="none" xmlns="http://www.w3.org/2000/svg">
<path fill-rule="evenodd" clip-rule="evenodd" d="M20.0964 30.7122C23.2684 28.9182 26.4406 28.8522 29.6104 30.7062C29.8584 30.8502 30.1644 30.8522 30.4124 30.7082C30.6604 30.5662 30.8144 30.3002 30.8144 30.0142V15.2839C30.8144 14.9979 30.6624 14.7339 30.4144 14.5919C26.8444 12.5319 23.2725 12.5499 19.7044 14.3799C16.1324 12.5499 12.5625 12.5319 8.99229 14.5919C8.74428 14.7339 8.59229 14.9979 8.59229 15.2839V30.0142C8.59229 30.3002 8.74428 30.5662 8.99429 30.7082C9.24229 30.8522 9.54827 30.8502 9.79629 30.7062C12.9683 28.8522 16.1384 28.9182 19.3103 30.7122C19.5543 30.8502 19.8524 30.8502 20.0964 30.7122ZM18.9044 15.7679V28.7139C16.0004 27.4159 13.0963 27.3779 10.1922 28.6979V15.756C13.0962 14.228 16.0004 14.3059 18.9044 15.7679ZM20.5044 15.7679C23.4084 14.3059 26.3105 14.2279 29.2146 15.7559V28.6998C26.3106 27.3778 23.4085 27.4158 20.5044 28.7138V15.7679Z" fill="white"/>
<path fill-rule="evenodd" clip-rule="evenodd" d="M15.4502 3.89828C6.61608 5.84629 0 13.7261 0 23.1403C0 26.6203 0.90399 29.8926 2.49002 32.7322C2.00401 33.4202 1.71802 34.2622 1.71802 35.1701C1.71802 37.5081 3.61601 39.4081 5.95401 39.4081C6.66201 39.4081 7.32802 39.2341 7.916 38.9261C11.204 41.3881 15.2842 42.8441 19.7038 42.8441C21.4498 42.8441 23.1438 42.6161 24.7578 42.1881L24.2578 43.4741C24.0978 43.8841 24.3038 44.3481 24.7138 44.5081C25.1278 44.6681 25.5918 44.4641 25.7498 44.0521L26.9318 41.0041C27.0918 40.5941 26.8878 40.1301 26.4758 39.9701L23.4298 38.7881C23.0178 38.6281 22.5538 38.8321 22.3938 39.2441C22.2338 39.6561 22.4398 40.1201 22.8498 40.2801L24.0078 40.7281C22.6278 41.0661 21.1858 41.2441 19.7038 41.2441C15.7918 41.2441 12.1677 40.0021 9.20577 37.8881C9.82175 37.1521 10.1918 36.2041 10.1918 35.1701C10.1918 32.8321 8.29379 30.9321 5.95379 30.9321C5.12179 30.9321 4.3438 31.1741 3.68977 31.5881C2.35575 29.0681 1.59978 26.1921 1.59978 23.1401C1.59978 14.5502 7.59583 7.34789 15.6276 5.49802C16.1656 7.22204 17.7736 8.47403 19.6736 8.47403C21.5776 8.47403 23.1896 7.21605 23.7236 5.48604C31.7835 7.31604 37.8077 14.53 37.8077 23.1399C37.8077 24.2658 37.7037 25.3639 37.5077 26.4339C37.4277 26.8679 37.7157 27.2839 38.1497 27.3639C38.5837 27.4438 38.9998 27.1559 39.0797 26.7239C39.2957 25.5619 39.4077 24.3638 39.4077 23.1399C39.4077 13.7057 32.7599 5.80963 23.8956 3.88399C23.7176 1.70998 21.8936 0 19.6736 0C17.4476 0 15.6236 1.71802 15.4496 3.89802L15.4502 3.89828ZM5.95406 32.5325C7.41009 32.5325 8.59205 33.7165 8.59205 35.1705C8.59205 36.6265 7.41004 37.8084 5.95406 37.8084C4.50008 37.8084 3.31808 36.6264 3.31808 35.1705C3.31808 33.7165 4.50008 32.5325 5.95406 32.5325ZM19.6742 1.60042C21.1281 1.60042 22.3122 2.78243 22.3122 4.23641C22.3122 5.69244 21.1281 6.87439 19.6742 6.87439C18.2181 6.87439 17.0362 5.69239 17.0362 4.23641C17.0362 2.78243 18.2182 1.60042 19.6742 1.60042Z" fill="white"/>
<path fill-rule="evenodd" clip-rule="evenodd" d="M28.8886 33.4946C28.8766 33.5006 28.8086 33.5406 28.7846 33.5546C28.5466 33.7006 28.4006 33.9586 28.4006 34.2366V42.9908C28.4006 43.2908 28.5686 43.5648 28.8326 43.7008L36.9745 47.9108C37.2045 48.0308 37.4805 48.0288 37.7085 47.9108L45.8483 43.7008C46.1143 43.5648 46.2803 43.2908 46.2803 42.9908V34.2366C46.2803 33.9586 46.1363 33.7005 45.8963 33.5546C45.8803 33.5446 45.8263 33.5046 45.8103 33.4966L37.7263 29.3046C37.4963 29.1866 37.2223 29.1866 36.9923 29.3046L28.8886 33.4946ZM36.5405 38.9325V45.8865L30.0007 42.5045V35.5526L36.5405 38.9325ZM38.1405 45.8865V38.9325L44.6803 35.5525V42.5045L38.1405 45.8865ZM30.9387 34.2365L37.3408 37.5465L43.7525 34.2304L37.3587 30.9164L30.9387 34.2365Z" fill="white"/>
</svg>
