<svg width="48" height="48" viewBox="0 0 48 48" fill="none" xmlns="http://www.w3.org/2000/svg">
<path d="M25.1073 18.9563C23.2638 18.9563 21.7612 20.4589 21.7612 22.2954C21.7612 24.1319 23.2638 25.6415 25.1073 25.6415C26.9508 25.6415 28.4534 24.1389 28.4534 22.2954C28.4534 20.452 26.9508 18.9563 25.1073 18.9563ZM25.1073 23.9022C24.2238 23.9022 23.5003 23.1857 23.5003 22.2952C23.5003 21.4048 24.2169 20.6952 25.1073 20.6952C25.9977 20.6952 26.7143 21.4118 26.7143 22.2952C26.7143 23.1787 25.9977 23.9022 25.1073 23.9022Z" fill="white"/>
<path d="M15.3402 18.9563C13.4967 18.9563 11.9941 20.4589 11.9941 22.2954C11.9941 24.1319 13.4967 25.6415 15.3402 25.6415C17.1837 25.6415 18.6793 24.1389 18.6793 22.2954C18.6793 20.452 17.1767 18.9563 15.3402 18.9563ZM15.3402 23.9022C14.4567 23.9022 13.7332 23.1857 13.7332 22.2952C13.7332 21.4048 14.4498 20.6952 15.3402 20.6952C16.2306 20.6952 16.9402 21.4118 16.9402 22.2952C16.9402 23.1787 16.2237 23.9022 15.3402 23.9022Z" fill="white"/>
<path d="M44.6269 27.8886L40.78 19.4433V4.34781C40.78 1.94782 38.8322 0 36.4322 0H18.1854C15.7855 0 13.8376 1.94782 13.8376 4.34781V8.98785C8.87748 11.3739 5.4413 16.4381 5.4413 22.3025C5.4413 25.1408 6.24131 27.8815 7.7648 30.2469L4.06393 39.5061C3.93176 39.8261 4.00828 40.1948 4.25872 40.4452C4.42567 40.6122 4.64828 40.7026 4.87089 40.7026C4.98219 40.7026 5.08654 40.6818 5.19089 40.64L15.7857 36.4105C17.2048 36.8626 18.7005 37.0922 20.224 37.0922C27.4311 37.0922 33.4416 31.9094 34.7354 25.0785L43.4727 29.0506C43.591 29.1063 43.7093 29.1272 43.8345 29.1272C44.0571 29.1272 44.2797 29.0367 44.4467 28.8698C44.704 28.6124 44.7736 28.2228 44.6206 27.8959L44.6269 27.8886ZM20.2237 35.346C18.7837 35.346 17.3716 35.1164 16.0429 34.6573C15.8481 34.5877 15.6324 34.5947 15.4377 34.6712L6.43583 38.2677L9.53845 30.4902C9.56628 30.4276 9.58715 30.365 9.5941 30.2954C9.63584 30.0589 9.58019 29.8224 9.44802 29.6346C7.96629 27.478 7.18017 24.9389 7.18017 22.2956C7.18017 15.1027 13.0308 9.25211 20.2237 9.25211C27.4166 9.25211 33.2672 15.1027 33.2672 22.2956C33.2672 29.4885 27.4166 35.3391 20.2237 35.3391L20.2237 35.346ZM34.9577 23.2557C34.9786 22.9357 35.0064 22.6227 35.0064 22.3027C35.0064 14.1499 28.3767 7.52015 20.2239 7.52015C18.603 7.52015 17.0378 7.79146 15.5767 8.2784V4.34798C15.5767 2.90798 16.7454 1.73928 18.1854 1.73928H36.4322C37.8722 1.73928 39.0409 2.90798 39.0409 4.34798V19.6314C39.0409 19.7566 39.0687 19.8818 39.1174 19.9931L42.0809 26.4973L34.9577 23.2557Z" fill="white"/>
</svg>
